<mxfile host="app.diagrams.net" agent="Mozilla/5.0 (Windows NT 10.0; Win64; x64) AppleWebKit/537.36 (KHTML, like Gecko) Chrome/131.0.0.0 Safari/537.36" version="24.8.8">
  <diagram name="Page-1" id="4Nyt0mQTIJPksqhnSVbi">
    <mxGraphModel dx="819" dy="422" grid="1" gridSize="10" guides="1" tooltips="1" connect="1" arrows="1" fold="1" page="1" pageScale="1" pageWidth="827" pageHeight="1169" math="0" shadow="0">
      <root>
        <mxCell id="0" />
        <mxCell id="1" parent="0" />
        <mxCell id="JP75FuMAK_BQMcnS_r5p-7" value="" style="group" vertex="1" connectable="0" parent="1">
          <mxGeometry x="300" y="567.03" width="120" height="81" as="geometry" />
        </mxCell>
        <mxCell id="JP75FuMAK_BQMcnS_r5p-1" value="" style="points=[];aspect=fixed;html=1;align=center;shadow=0;dashed=0;fillColor=#FF6A00;strokeColor=none;shape=mxgraph.alibaba_cloud.ecs_elastic_compute_service;" vertex="1" parent="JP75FuMAK_BQMcnS_r5p-7">
          <mxGeometry x="35.69999999999999" width="48.6" height="45.3" as="geometry" />
        </mxCell>
        <mxCell id="JP75FuMAK_BQMcnS_r5p-2" value="ECS&lt;div&gt;for BE&lt;/div&gt;" style="text;html=1;align=center;verticalAlign=middle;resizable=0;points=[];autosize=1;strokeColor=none;fillColor=none;" vertex="1" parent="JP75FuMAK_BQMcnS_r5p-7">
          <mxGeometry x="30" y="41" width="60" height="40" as="geometry" />
        </mxCell>
        <mxCell id="JP75FuMAK_BQMcnS_r5p-8" value="" style="group" vertex="1" connectable="0" parent="1">
          <mxGeometry x="600" y="490" width="70" height="235.05" as="geometry" />
        </mxCell>
        <mxCell id="JP75FuMAK_BQMcnS_r5p-4" value="Amazon S3 Data storage" style="sketch=0;outlineConnect=0;fontColor=#232F3E;gradientColor=none;strokeColor=#ffffff;fillColor=#232F3E;dashed=0;verticalLabelPosition=middle;verticalAlign=bottom;align=center;html=1;whiteSpace=wrap;fontSize=10;fontStyle=1;spacing=3;shape=mxgraph.aws4.productIcon;prIcon=mxgraph.aws4.s3;" vertex="1" parent="JP75FuMAK_BQMcnS_r5p-8">
          <mxGeometry width="60" height="99.35" as="geometry" />
        </mxCell>
        <mxCell id="JP75FuMAK_BQMcnS_r5p-5" value="OR" style="text;html=1;align=center;verticalAlign=middle;resizable=0;points=[];autosize=1;strokeColor=none;fillColor=none;" vertex="1" parent="JP75FuMAK_BQMcnS_r5p-8">
          <mxGeometry x="10" y="105.05000000000001" width="40" height="30" as="geometry" />
        </mxCell>
        <mxCell id="JP75FuMAK_BQMcnS_r5p-6" value="Amazon RDS Data storage" style="sketch=0;outlineConnect=0;fontColor=#232F3E;gradientColor=none;strokeColor=#ffffff;fillColor=#232F3E;dashed=0;verticalLabelPosition=middle;verticalAlign=bottom;align=center;html=1;whiteSpace=wrap;fontSize=10;fontStyle=1;spacing=3;shape=mxgraph.aws4.productIcon;prIcon=mxgraph.aws4.rds;" vertex="1" parent="JP75FuMAK_BQMcnS_r5p-8">
          <mxGeometry y="135.05" width="70" height="100" as="geometry" />
        </mxCell>
        <mxCell id="JP75FuMAK_BQMcnS_r5p-10" value="" style="endArrow=classic;html=1;rounded=0;exitX=1.05;exitY=0.053;exitDx=0;exitDy=0;exitPerimeter=0;" edge="1" parent="1" source="JP75FuMAK_BQMcnS_r5p-1">
          <mxGeometry width="50" height="50" relative="1" as="geometry">
            <mxPoint x="440" y="610" as="sourcePoint" />
            <mxPoint x="590" y="570" as="targetPoint" />
          </mxGeometry>
        </mxCell>
        <mxCell id="JP75FuMAK_BQMcnS_r5p-11" value="Write data (seeding)&amp;nbsp;" style="edgeLabel;html=1;align=center;verticalAlign=middle;resizable=0;points=[];" vertex="1" connectable="0" parent="JP75FuMAK_BQMcnS_r5p-10">
          <mxGeometry x="0.0962" relative="1" as="geometry">
            <mxPoint as="offset" />
          </mxGeometry>
        </mxCell>
        <mxCell id="JP75FuMAK_BQMcnS_r5p-12" value="" style="endArrow=classic;html=1;rounded=0;entryX=0.751;entryY=-0.036;entryDx=0;entryDy=0;entryPerimeter=0;" edge="1" parent="1" target="JP75FuMAK_BQMcnS_r5p-2">
          <mxGeometry width="50" height="50" relative="1" as="geometry">
            <mxPoint x="590" y="607" as="sourcePoint" />
            <mxPoint x="490" y="610" as="targetPoint" />
          </mxGeometry>
        </mxCell>
        <mxCell id="JP75FuMAK_BQMcnS_r5p-13" value="Read data" style="edgeLabel;html=1;align=center;verticalAlign=middle;resizable=0;points=[];" vertex="1" connectable="0" parent="JP75FuMAK_BQMcnS_r5p-12">
          <mxGeometry x="-0.1209" relative="1" as="geometry">
            <mxPoint as="offset" />
          </mxGeometry>
        </mxCell>
        <mxCell id="JP75FuMAK_BQMcnS_r5p-18" value="" style="edgeStyle=none;orthogonalLoop=1;jettySize=auto;html=1;rounded=0;entryX=0.015;entryY=0.066;entryDx=0;entryDy=0;entryPerimeter=0;" edge="1" parent="1" target="JP75FuMAK_BQMcnS_r5p-1">
          <mxGeometry width="100" relative="1" as="geometry">
            <mxPoint x="170" y="570" as="sourcePoint" />
            <mxPoint x="340" y="590" as="targetPoint" />
            <Array as="points" />
          </mxGeometry>
        </mxCell>
        <mxCell id="JP75FuMAK_BQMcnS_r5p-19" value="Sends requests&amp;nbsp;&lt;div&gt;(movies endpoint&amp;nbsp;&lt;/div&gt;&lt;div&gt;with queries)&lt;/div&gt;" style="edgeLabel;html=1;align=center;verticalAlign=middle;resizable=0;points=[];" vertex="1" connectable="0" parent="JP75FuMAK_BQMcnS_r5p-18">
          <mxGeometry x="-0.1605" y="-1" relative="1" as="geometry">
            <mxPoint as="offset" />
          </mxGeometry>
        </mxCell>
        <mxCell id="JP75FuMAK_BQMcnS_r5p-20" value="" style="edgeStyle=none;orthogonalLoop=1;jettySize=auto;html=1;rounded=0;entryX=1;entryY=0.79;entryDx=0;entryDy=0;entryPerimeter=0;exitX=-0.009;exitY=0.797;exitDx=0;exitDy=0;exitPerimeter=0;" edge="1" parent="1">
          <mxGeometry width="100" relative="1" as="geometry">
            <mxPoint x="335.2626" y="616.4241" as="sourcePoint" />
            <mxPoint x="170" y="616.6399999999999" as="targetPoint" />
            <Array as="points" />
          </mxGeometry>
        </mxCell>
        <mxCell id="JP75FuMAK_BQMcnS_r5p-21" value="Sends response" style="edgeLabel;html=1;align=center;verticalAlign=middle;resizable=0;points=[];" vertex="1" connectable="0" parent="JP75FuMAK_BQMcnS_r5p-20">
          <mxGeometry x="-0.2327" relative="1" as="geometry">
            <mxPoint as="offset" />
          </mxGeometry>
        </mxCell>
        <mxCell id="JP75FuMAK_BQMcnS_r5p-24" value="" style="group" vertex="1" connectable="0" parent="1">
          <mxGeometry x="80" y="552" width="130" height="105" as="geometry" />
        </mxCell>
        <mxCell id="JP75FuMAK_BQMcnS_r5p-15" value="" style="outlineConnect=0;dashed=0;verticalLabelPosition=bottom;verticalAlign=top;align=center;html=1;shape=mxgraph.aws3.cloudfront;fillColor=#F58536;gradientColor=none;" vertex="1" parent="JP75FuMAK_BQMcnS_r5p-24">
          <mxGeometry x="40" width="50" height="65" as="geometry" />
        </mxCell>
        <mxCell id="JP75FuMAK_BQMcnS_r5p-16" value="Cloudfront (with S3)&lt;div&gt;&amp;nbsp;for FE&amp;nbsp;&lt;/div&gt;" style="text;html=1;align=center;verticalAlign=middle;resizable=0;points=[];autosize=1;strokeColor=none;fillColor=none;" vertex="1" parent="JP75FuMAK_BQMcnS_r5p-24">
          <mxGeometry y="65" width="130" height="40" as="geometry" />
        </mxCell>
        <mxCell id="JP75FuMAK_BQMcnS_r5p-25" value="" style="group" vertex="1" connectable="0" parent="1">
          <mxGeometry x="315" y="750" width="110" height="110" as="geometry" />
        </mxCell>
        <mxCell id="JP75FuMAK_BQMcnS_r5p-22" value="" style="outlineConnect=0;dashed=0;verticalLabelPosition=bottom;verticalAlign=top;align=center;html=1;shape=mxgraph.aws3.cloudwatch;fillColor=#759C3E;gradientColor=none;" vertex="1" parent="JP75FuMAK_BQMcnS_r5p-25">
          <mxGeometry x="25" width="60" height="70" as="geometry" />
        </mxCell>
        <mxCell id="JP75FuMAK_BQMcnS_r5p-23" value="Cloudwatch for&amp;nbsp;&lt;div&gt;monitoring&lt;/div&gt;" style="text;html=1;align=center;verticalAlign=middle;resizable=0;points=[];autosize=1;strokeColor=none;fillColor=none;" vertex="1" parent="JP75FuMAK_BQMcnS_r5p-25">
          <mxGeometry y="70" width="110" height="40" as="geometry" />
        </mxCell>
        <mxCell id="JP75FuMAK_BQMcnS_r5p-26" value="" style="edgeStyle=none;orthogonalLoop=1;jettySize=auto;html=1;rounded=0;exitX=0.479;exitY=1.006;exitDx=0;exitDy=0;exitPerimeter=0;entryX=0.35;entryY=0;entryDx=0;entryDy=0;entryPerimeter=0;" edge="1" parent="1" source="JP75FuMAK_BQMcnS_r5p-2" target="JP75FuMAK_BQMcnS_r5p-22">
          <mxGeometry width="100" relative="1" as="geometry">
            <mxPoint x="340" y="700" as="sourcePoint" />
            <mxPoint x="440" y="700" as="targetPoint" />
            <Array as="points" />
          </mxGeometry>
        </mxCell>
        <mxCell id="JP75FuMAK_BQMcnS_r5p-27" value="Writes logs" style="edgeLabel;html=1;align=center;verticalAlign=middle;resizable=0;points=[];" vertex="1" connectable="0" parent="JP75FuMAK_BQMcnS_r5p-26">
          <mxGeometry x="-0.3477" y="1" relative="1" as="geometry">
            <mxPoint as="offset" />
          </mxGeometry>
        </mxCell>
        <mxCell id="JP75FuMAK_BQMcnS_r5p-30" value="" style="group" vertex="1" connectable="0" parent="1">
          <mxGeometry x="310" y="350" width="100" height="100" as="geometry" />
        </mxCell>
        <mxCell id="JP75FuMAK_BQMcnS_r5p-28" value="" style="outlineConnect=0;dashed=0;verticalLabelPosition=bottom;verticalAlign=top;align=center;html=1;shape=mxgraph.aws3.iam;fillColor=#759C3E;gradientColor=none;" vertex="1" parent="JP75FuMAK_BQMcnS_r5p-30">
          <mxGeometry x="34.5" width="31" height="60" as="geometry" />
        </mxCell>
        <mxCell id="JP75FuMAK_BQMcnS_r5p-29" value="IAM for&amp;nbsp;&lt;div&gt;resource roles&lt;/div&gt;" style="text;html=1;align=center;verticalAlign=middle;resizable=0;points=[];autosize=1;strokeColor=none;fillColor=none;" vertex="1" parent="JP75FuMAK_BQMcnS_r5p-30">
          <mxGeometry y="60" width="100" height="40" as="geometry" />
        </mxCell>
        <mxCell id="JP75FuMAK_BQMcnS_r5p-31" value="" style="edgeStyle=orthogonalEdgeStyle;rounded=0;orthogonalLoop=1;jettySize=auto;html=1;" edge="1" parent="1" source="JP75FuMAK_BQMcnS_r5p-29" target="JP75FuMAK_BQMcnS_r5p-1">
          <mxGeometry relative="1" as="geometry" />
        </mxCell>
        <mxCell id="JP75FuMAK_BQMcnS_r5p-32" value="Provides&amp;nbsp;&lt;div&gt;permission to&amp;nbsp;&lt;/div&gt;&lt;div&gt;other resources&lt;/div&gt;" style="edgeLabel;html=1;align=center;verticalAlign=middle;resizable=0;points=[];" vertex="1" connectable="0" parent="JP75FuMAK_BQMcnS_r5p-31">
          <mxGeometry x="-0.4434" relative="1" as="geometry">
            <mxPoint as="offset" />
          </mxGeometry>
        </mxCell>
        <mxCell id="JP75FuMAK_BQMcnS_r5p-35" value="" style="group" vertex="1" connectable="0" parent="1">
          <mxGeometry x="110" y="740" width="110" height="120" as="geometry" />
        </mxCell>
        <mxCell id="JP75FuMAK_BQMcnS_r5p-33" value="" style="outlineConnect=0;dashed=0;verticalLabelPosition=bottom;verticalAlign=top;align=center;html=1;shape=mxgraph.aws3.cognito;fillColor=#AD688B;gradientColor=none;" vertex="1" parent="JP75FuMAK_BQMcnS_r5p-35">
          <mxGeometry x="30" width="50" height="60" as="geometry" />
        </mxCell>
        <mxCell id="JP75FuMAK_BQMcnS_r5p-34" value="Cognito for&amp;nbsp;&lt;div&gt;authentication &amp;amp;&lt;/div&gt;&lt;div&gt;&amp;nbsp;authorization&lt;/div&gt;" style="text;html=1;align=center;verticalAlign=middle;resizable=0;points=[];autosize=1;strokeColor=none;fillColor=none;" vertex="1" parent="JP75FuMAK_BQMcnS_r5p-35">
          <mxGeometry y="60" width="110" height="60" as="geometry" />
        </mxCell>
        <mxCell id="JP75FuMAK_BQMcnS_r5p-36" value="" style="edgeStyle=none;orthogonalLoop=1;jettySize=auto;html=1;endArrow=classic;startArrow=classic;endSize=8;startSize=8;rounded=0;exitX=0.518;exitY=0.996;exitDx=0;exitDy=0;exitPerimeter=0;" edge="1" parent="1" source="JP75FuMAK_BQMcnS_r5p-16" target="JP75FuMAK_BQMcnS_r5p-33">
          <mxGeometry width="100" relative="1" as="geometry">
            <mxPoint x="100" y="720" as="sourcePoint" />
            <mxPoint x="200" y="720" as="targetPoint" />
            <Array as="points" />
          </mxGeometry>
        </mxCell>
        <mxCell id="JP75FuMAK_BQMcnS_r5p-38" value="" style="edgeStyle=none;orthogonalLoop=1;jettySize=auto;html=1;endArrow=classic;startArrow=classic;endSize=8;startSize=8;rounded=0;entryX=0.012;entryY=0.392;entryDx=0;entryDy=0;entryPerimeter=0;" edge="1" parent="1" target="JP75FuMAK_BQMcnS_r5p-2">
          <mxGeometry width="100" relative="1" as="geometry">
            <mxPoint x="190" y="740" as="sourcePoint" />
            <mxPoint x="270" y="730" as="targetPoint" />
            <Array as="points" />
          </mxGeometry>
        </mxCell>
        <mxCell id="JP75FuMAK_BQMcnS_r5p-41" value="" style="group" vertex="1" connectable="0" parent="1">
          <mxGeometry x="150" y="360" width="70" height="90" as="geometry" />
        </mxCell>
        <mxCell id="JP75FuMAK_BQMcnS_r5p-39" value="" style="outlineConnect=0;dashed=0;verticalLabelPosition=bottom;verticalAlign=top;align=center;html=1;shape=mxgraph.aws3.route_53;fillColor=#F58536;gradientColor=none;" vertex="1" parent="JP75FuMAK_BQMcnS_r5p-41">
          <mxGeometry x="14.75" width="40.5" height="50" as="geometry" />
        </mxCell>
        <mxCell id="JP75FuMAK_BQMcnS_r5p-40" value="Route 53&lt;div&gt;for DNS&lt;/div&gt;" style="text;html=1;align=center;verticalAlign=middle;resizable=0;points=[];autosize=1;strokeColor=none;fillColor=none;" vertex="1" parent="JP75FuMAK_BQMcnS_r5p-41">
          <mxGeometry y="50" width="70" height="40" as="geometry" />
        </mxCell>
        <mxCell id="JP75FuMAK_BQMcnS_r5p-42" value="" style="edgeStyle=none;orthogonalLoop=1;jettySize=auto;html=1;endArrow=classic;startArrow=classic;endSize=8;startSize=8;rounded=0;entryX=0.141;entryY=1.043;entryDx=0;entryDy=0;entryPerimeter=0;" edge="1" parent="1" target="JP75FuMAK_BQMcnS_r5p-40">
          <mxGeometry width="100" relative="1" as="geometry">
            <mxPoint x="140" y="550" as="sourcePoint" />
            <mxPoint x="210" y="470" as="targetPoint" />
            <Array as="points" />
          </mxGeometry>
        </mxCell>
        <mxCell id="JP75FuMAK_BQMcnS_r5p-43" value="" style="edgeStyle=none;orthogonalLoop=1;jettySize=auto;html=1;endArrow=classic;startArrow=classic;endSize=8;startSize=8;rounded=0;exitX=0.957;exitY=1;exitDx=0;exitDy=0;exitPerimeter=0;" edge="1" parent="1" source="JP75FuMAK_BQMcnS_r5p-40">
          <mxGeometry width="100" relative="1" as="geometry">
            <mxPoint x="190" y="470" as="sourcePoint" />
            <mxPoint x="340" y="560" as="targetPoint" />
            <Array as="points" />
          </mxGeometry>
        </mxCell>
      </root>
    </mxGraphModel>
  </diagram>
</mxfile>
